# xmcd
#
# Track frame offsets:
#	150
#	11524
#	23842
#	39896
#	51074
#	64685
#	72836
#	86096
#	100957
#	116610
#	132825
#
# Disc length: 1912 seconds
#
# Revision: 1
# Processed by: cddbd v1.5.2PL0 Copyright (c) Steve Scherf et al.
# Submitted via: audiograbber 1.83.01
#
DISCID=8807760b
DTITLE=Wanda Jackson - Country Gospel
DYEAR=1974
DGENRE=Country
TTITLE0=I Love Jesus
TTITLE1=I Saw The Light
TTITLE2=Jesus Cares For Me
TTITLE3=Turn Your Radio On
TTITLE4=I'd Rather Have Jesus
TTITLE5=All In All
TTITLE6=I Know
TTITLE7=Why Me Lord
TTITLE8=Special Kind Of Man
TTITLE9=Farther Along
TTITLE10=Let Go Let Jesus
EXTD=
EXTT0=
EXTT1=
EXTT2=
EXTT3=
EXTT4=
EXTT5=
EXTT6=
EXTT7=
EXTT8=
EXTT9=
EXTT10=
PLAYORDER=
